# xmcd
#
# Track frame offsets:
#  300
#  13224
#  29909
#  43758
#  60592
#  72633
#  85550
#  108258
#  120823
#  132841
#  155263
#  169085
#
# Disc length: 2453 seconds
#
# Revision: 1
# Processed by: cddbd v1.5.1PL0 Copyright (c) Steve Scherf et al.
# Submitted via: Collectorz.com_Music_Collector 6.9
#
DISCID=9c09910c
DTITLE=W.C. Spencer - Blues Explorer
DYEAR=2004
DGENRE=Blues
TTITLE0=I Said the Blues
TTITLE1=Fourty Four
TTITLE2=Tell Me Mama
TTITLE3=So Long
TTITLE4=Kansas City
TTITLE5=Down With the Blues
TTITLE6=I'm Leaving You
TTITLE7=Worried Life Blues
TTITLE8=Mean Old Train
TTITLE9=Call on Me
TTITLE10=Eatin' Man Blues
TTITLE11=Key To The Highway
EXTD=
EXTT0=
EXTT1=
EXTT2=
EXTT3=
EXTT4=
EXTT5=
EXTT6=
EXTT7=
EXTT8=
EXTT9=
EXTT10=
EXTT11=
PLAYORDER=
